<svg xmlns="http://www.w3.org/2000/svg" viewBox="0 0 1600 1000">
  <g fill="none" stroke="#6faab0" stroke-width="1.2" opacity="0.22">
    <ellipse cx="300" cy="320" rx="268" ry="198" transform="rotate(-10 300 320)"/>
    <ellipse cx="302" cy="322" rx="208" ry="153" transform="rotate(-8 302 322)"/>
    <ellipse cx="304" cy="324" rx="148" ry="108" transform="rotate(-5 304 324)"/>
    <ellipse cx="306" cy="326" rx="90" ry="65" transform="rotate(-3 306 326)"/>
    <ellipse cx="308" cy="328" rx="40" ry="28" transform="rotate(-1 308 328)"/>
    <ellipse cx="310" cy="330" rx="12" ry="8"/>
    <ellipse cx="1250" cy="620" rx="225" ry="162" transform="rotate(14 1250 620)"/>
    <ellipse cx="1248" cy="618" rx="170" ry="120" transform="rotate(11 1248 618)"/>
    <ellipse cx="1246" cy="616" rx="116" ry="82" transform="rotate(8 1246 616)"/>
    <ellipse cx="1244" cy="614" rx="65" ry="46" transform="rotate(5 1244 614)"/>
    <ellipse cx="1242" cy="612" rx="25" ry="17" transform="rotate(3 1242 612)"/>
    <ellipse cx="840" cy="300" rx="175" ry="128" transform="rotate(-22 840 300)"/>
    <ellipse cx="842" cy="302" rx="125" ry="90" transform="rotate(-18 842 302)"/>
    <ellipse cx="844" cy="304" rx="78" ry="56" transform="rotate(-14 844 304)"/>
    <ellipse cx="846" cy="306" rx="36" ry="26" transform="rotate(-10 846 306)"/>
    <ellipse cx="1450" cy="140" rx="170" ry="124" transform="rotate(-18 1450 140)"/>
    <ellipse cx="1452" cy="142" rx="120" ry="88" transform="rotate(-14 1452 142)"/>
    <ellipse cx="1454" cy="144" rx="74" ry="54" transform="rotate(-10 1454 144)"/>
    <ellipse cx="80" cy="830" rx="152" ry="112" transform="rotate(7 80 830)"/>
    <ellipse cx="82" cy="828" rx="105" ry="77" transform="rotate(5 82 828)"/>
    <ellipse cx="84" cy="826" rx="62" ry="46" transform="rotate(3 84 826)"/>
  </g>
</svg>
